<?xml version="1.0" encoding="UTF-8" standalone="no"?>
<svg
   width="2897"
   height="1855"
   xml:space="preserve"
   overflow="hidden"
   version="1.1"
   id="svg88"
   sodipodi:docname="hpsu.svg"
   inkscape:version="1.4 (86a8ad7, 2024-10-11)"
   xmlns:inkscape="http://www.inkscape.org/namespaces/inkscape"
   xmlns:sodipodi="http://sodipodi.sourceforge.net/DTD/sodipodi-0.dtd"
   xmlns="http://www.w3.org/2000/svg"
   xmlns:svg="http://www.w3.org/2000/svg"><sodipodi:namedview
     id="namedview88"
     pagecolor="#ffffff"
     bordercolor="#000000"
     borderopacity="0.25"
     inkscape:showpageshadow="2"
     inkscape:pageopacity="0.0"
     inkscape:pagecheckerboard="0"
     inkscape:deskcolor="#d1d1d1"
     inkscape:zoom="0.67470566"
     inkscape:cx="1047.8643"
     inkscape:cy="1144.9437"
     inkscape:window-width="1920"
     inkscape:window-height="1129"
     inkscape:window-x="-8"
     inkscape:window-y="-8"
     inkscape:window-maximized="1"
     inkscape:current-layer="layer1" /><defs
     id="defs12"><linearGradient
       x1="362"
       y1="761.5"
       x2="362"
       y2="1280.5"
       gradientUnits="userSpaceOnUse"
       spreadMethod="reflect"
       id="fill0"><stop
         offset="0"
         stop-color="#4472C4"
         id="stop1" /><stop
         offset="0.74"
         stop-color="#ABC0E4"
         id="stop2" /><stop
         offset="0.83"
         stop-color="#ABC0E4"
         id="stop3" /><stop
         offset="1"
         stop-color="#C7D5ED"
         id="stop4" /></linearGradient><linearGradient
       x1="362"
       y1="761.5"
       x2="362"
       y2="1280.5"
       gradientUnits="userSpaceOnUse"
       spreadMethod="reflect"
       id="fill1"><stop
         offset="0"
         stop-color="#4472C4"
         id="stop5" /><stop
         offset="0.74"
         stop-color="#ABC0E4"
         id="stop6" /><stop
         offset="0.83"
         stop-color="#ABC0E4"
         id="stop7" /><stop
         offset="1"
         stop-color="#C7D5ED"
         id="stop8" /></linearGradient><linearGradient
       x1="362"
       y1="761.5"
       x2="362"
       y2="1280.5"
       gradientUnits="userSpaceOnUse"
       spreadMethod="reflect"
       id="fill2"><stop
         offset="0"
         stop-color="#4472C4"
         id="stop9" /><stop
         offset="0.74"
         stop-color="#ABC0E4"
         id="stop10" /><stop
         offset="0.83"
         stop-color="#ABC0E4"
         id="stop11" /><stop
         offset="1"
         stop-color="#C7D5ED"
         id="stop12" /></linearGradient></defs><g
     inkscape:groupmode="layer"
     id="layer1"
     inkscape:label="Layer 1"><rect
       x="565.5"
       y="699.5"
       width="573"
       height="18.9999"
       stroke="#404040"
       stroke-width="4.58333"
       stroke-miterlimit="8"
       fill="#7F7F7F"
       id="rect12"
       transform="translate(-108,-252)" /><path
       d="M1603.92 1834.7 1307 1778"
       stroke="#595959"
       stroke-width="8.02083"
       stroke-miterlimit="8"
       fill="none"
       fill-rule="evenodd"
       id="path12"
       transform="translate(-108,-252)" /><path
       d="M0 0 31.7921 164.143"
       stroke="#595959"
       stroke-width="8.02083"
       stroke-miterlimit="8"
       fill="none"
       fill-rule="evenodd"
       transform="matrix(-1,0,0,1,1459.79,240)"
       id="path13" /><path
       d="M0 0 82.8573 195.692"
       stroke="#595959"
       stroke-width="8.02083"
       stroke-miterlimit="8"
       fill="none"
       fill-rule="evenodd"
       transform="matrix(-1,0,0,1,739.857,242)"
       id="path14" /><path
       d="M0 0 84.2806 132.67"
       stroke="#595959"
       stroke-width="8.02083"
       stroke-miterlimit="8"
       fill="none"
       fill-rule="evenodd"
       transform="matrix(-1,0,0,1,1035.28,240)"
       id="path15" /><rect
       x="2595.5"
       y="1146.5"
       width="19"
       height="130"
       stroke="#2F528F"
       stroke-width="4.58333"
       stroke-miterlimit="8"
       fill="#4472C4"
       id="rect15"
       transform="translate(-108,-252)" /><rect
       x="2388.5"
       y="413.5"
       width="20.0002"
       height="299"
       stroke="#2F528F"
       stroke-width="4.58333"
       stroke-miterlimit="8"
       fill="#4472C4"
       id="rect16"
       transform="translate(-108,-252)" /><rect
       x="1278.5"
       y="699.5"
       width="1529"
       height="18.9999"
       stroke="#2F528F"
       stroke-width="4.58333"
       stroke-miterlimit="8"
       fill="#4472C4"
       id="rect17"
       transform="translate(-108,-252)" /><rect
       x="1956.5"
       y="1331.5"
       width="221"
       height="19.0002"
       stroke="#2F528F"
       stroke-width="4.58333"
       stroke-miterlimit="8"
       fill="#4472C4"
       id="rect18"
       transform="translate(-108,-252)" /><path
       d="M1475.41 1255.65 1460 1236"
       stroke="#595959"
       stroke-width="8.02083"
       stroke-miterlimit="8"
       fill="none"
       fill-rule="evenodd"
       id="path18"
       transform="translate(-108,-252)" /><path
       d="M2402 981 2402.79 1107.5"
       stroke="#595959"
       stroke-width="8.02083"
       stroke-miterlimit="8"
       fill="none"
       fill-rule="evenodd"
       id="path19"
       transform="translate(-108,-252)" /><rect
       x="2594.5"
       y="413.5"
       width="20"
       height="637"
       stroke="#2F528F"
       stroke-width="4.58333"
       stroke-miterlimit="8"
       fill="#4472C4"
       id="rect19"
       transform="translate(-108,-252)" /><path
       d="M0 0 0.160236 149.508"
       stroke="#595959"
       stroke-width="8.02083"
       stroke-miterlimit="8"
       fill="none"
       fill-rule="evenodd"
       transform="matrix(1,0,0,-1,2093,470.508)"
       id="path20" /><path
       d="M701.781 1037.63 566 1021"
       stroke="#595959"
       stroke-width="8.02083"
       stroke-miterlimit="8"
       fill="none"
       fill-rule="evenodd"
       id="path21"
       transform="translate(-108,-252)" /><rect
       x="548.5"
       y="1330.5"
       width="590"
       height="19.9999"
       stroke="#404040"
       stroke-width="4.58333"
       stroke-miterlimit="8"
       fill="#7F7F7F"
       id="rect21"
       transform="translate(-108,-252)" /><path
       d="M1893.92 1084.5 2535.5 1084.5 2535.5 1104.02 1911.23 1104.02 1911.23 1291.5 1891.5 1291.5 1891.5 1084.51 1893.92 1084.51Z"
       stroke="#2F528F"
       stroke-width="4.58333"
       stroke-miterlimit="8"
       fill="#4472C4"
       fill-rule="evenodd"
       id="path22"
       transform="translate(-108,-252)" /><rect
       x="1270.5"
       y="1330.5"
       width="582"
       height="19.9999"
       stroke="#2F528F"
       stroke-width="4.58333"
       stroke-miterlimit="8"
       fill="#4472C4"
       id="rect22"
       transform="translate(-108,-252)" /><rect
       x="417.5"
       y="599.5"
       width="149"
       height="845"
       stroke="#2F528F"
       stroke-width="4.58333"
       stroke-miterlimit="8"
       fill="#2F5597"
       id="rect23"
       transform="translate(-108,-252)" /><path
       d="M417.5 1444.5 566.5 599.5 566.5 1444.5Z"
       stroke="#2F528F"
       stroke-width="0"
       stroke-miterlimit="8"
       fill="#411D07"
       fill-rule="evenodd"
       id="path23"
       transform="translate(-108,-252)" /><path
       d="M322.5 1156.5C322.5 1088.02 340.632 1032.5 363 1032.5 385.368 1032.5 403.5 1088.02 403.5 1156.5 403.5 1224.98 385.368 1280.5 363 1280.5 340.632 1280.5 322.5 1224.98 322.5 1156.5Z"
       stroke="#2F528F"
       stroke-width="4.58333"
       stroke-miterlimit="8"
       fill="url(#fill0)"
       fill-rule="evenodd"
       id="path24"
       transform="translate(-108,-252)" /><path
       d="M320.5 885.5C320.5 817.017 338.632 761.5 361 761.5 383.367 761.5 401.5 817.017 401.5 885.5 401.5 953.983 383.367 1009.5 361 1009.5 338.632 1009.5 320.5 953.983 320.5 885.5Z"
       stroke="#2F528F"
       stroke-width="4.58333"
       stroke-miterlimit="8"
       fill="url(#fill1)"
       fill-rule="evenodd"
       id="path25"
       transform="translate(-108,-252)" /><path
       d="M398.046 960.5 401.5 961.197 401.5 1080.8 398.046 1081.5C364.607 1081.5 337.5 1054.41 337.5 1021 337.5 987.587 364.607 960.5 398.046 960.5Z"
       stroke="#2F528F"
       stroke-width="4.58333"
       stroke-miterlimit="8"
       fill="url(#fill2)"
       fill-rule="evenodd"
       id="path26"
       transform="translate(-108,-252)" /><rect
       x="1139.5"
       y="599.5"
       width="149"
       height="845"
       stroke="#2F528F"
       stroke-width="4.58333"
       stroke-miterlimit="8"
       fill="#2F5597"
       id="rect30"
       transform="translate(-108,-252)" /><path
       d="M1139.5 1444.5 1288.5 599.5 1288.5 1444.5Z"
       stroke="#2F528F"
       stroke-width="0"
       stroke-miterlimit="8"
       fill="#411D07"
       fill-rule="evenodd"
       id="path30"
       transform="translate(-108,-252)" /><path
       d="M732.5 670.5 798.5 709 732.5 747.5Z"
       stroke="#404040"
       stroke-width="4.58333"
       stroke-miterlimit="8"
       fill="#7F7F7F"
       fill-rule="evenodd"
       id="path38"
       transform="translate(-108,-252)" /><path
       d="M865.5 747.5 798.5 709 865.5 670.5Z"
       stroke="#404040"
       stroke-width="4.58333"
       stroke-miterlimit="8"
       fill="#7F7F7F"
       fill-rule="evenodd"
       id="path39"
       transform="translate(-108,-252)" /><path
       d="M748.5 1341C748.5 1313.11 771.109 1290.5 799 1290.5 826.89 1290.5 849.5 1313.11 849.5 1341 849.5 1368.89 826.89 1391.5 799 1391.5 771.109 1391.5 748.5 1368.89 748.5 1341Z"
       stroke="#404040"
       stroke-width="4.58333"
       stroke-miterlimit="8"
       fill="#7F7F7F"
       fill-rule="evenodd"
       id="path40"
       transform="translate(-108,-252)" /><path
       d="M0 0 80.6627 10.7329"
       stroke="#404040"
       stroke-width="6.875"
       stroke-miterlimit="8"
       fill="none"
       fill-rule="evenodd"
       transform="matrix(1,0,0,-1,655.5,1125.23)"
       id="path41" /><path
       d="M763.5 1305.5 846.74 1321.38"
       stroke="#404040"
       stroke-width="6.875"
       stroke-miterlimit="8"
       fill="none"
       fill-rule="evenodd"
       id="path42"
       transform="translate(-108,-252)" /><rect
       x="110.5"
       y="254.5"
       width="2892"
       height="1850"
       stroke="#2F528F"
       stroke-width="4.58333"
       stroke-miterlimit="8"
       stroke-opacity="0"
       fill="none"
       id="rect46"
       transform="translate(-108,-252)" /><path
       d="M1486.5 707C1486.5 679.11 1509.11 656.5 1537 656.5 1564.89 656.5 1587.5 679.11 1587.5 707 1587.5 734.891 1564.89 757.5 1537 757.5 1509.11 757.5 1486.5 734.891 1486.5 707Z"
       stroke="#2F528F"
       stroke-width="4.58333"
       stroke-miterlimit="8"
       fill="#4472C4"
       fill-rule="evenodd"
       id="path46"
       transform="translate(-108,-252)" /><path
       d="M1561.5 745.5 1493.5 705 1561.5 664.5Z"
       stroke="#2F528F"
       stroke-width="4.58333"
       stroke-miterlimit="8"
       fill="#2F5597"
       fill-rule="evenodd"
       id="path47"
       transform="translate(-108,-252)" /><rect
       x="1775.5"
       y="678.5"
       width="131"
       height="56.0001"
       stroke="#2F528F"
       stroke-width="4.58333"
       stroke-miterlimit="8"
       fill="#4472C4"
       id="rect47"
       transform="translate(-108,-252)" /><text
       fill="#FFFFFF"
       font-family="Calibri,Calibri_MSFontService,sans-serif"
       font-weight="400"
       font-size="46"
       transform="translate(1701.85,470)"
       id="text47">FLS</text><g
       id="g102"><path
         d="M1972.5 1370.5 1905.5 1341 1972.5 1311.5Z"
         stroke="#2F528F"
         stroke-width="4.58333"
         stroke-miterlimit="8"
         fill="#4472C4"
         fill-rule="evenodd"
         id="path49"
         transform="translate(-108,-252)" /><path
         d="M1830.5 1311.5 1897.5 1341 1830.5 1370.5Z"
         stroke="#2F528F"
         stroke-width="4.58333"
         stroke-miterlimit="8"
         fill="#4472C4"
         fill-rule="evenodd"
         id="path50"
         transform="translate(-108,-252)" /><path
         d="M1930.5 1260.5 1901 1327.5 1871.5 1260.5Z"
         stroke="#D9D9D9"
         stroke-width="9.16667"
         stroke-miterlimit="8"
         fill="#4472C4"
         fill-rule="evenodd"
         id="path51"
         transform="translate(-108,-252)" /></g><g
       id="g103"><path
         d="M2634.5 1023.5 2605 1090.5 2575.5 1023.5Z"
         stroke="#2F528F"
         stroke-width="4.58333"
         stroke-miterlimit="8"
         fill="#4472C4"
         fill-rule="evenodd"
         id="path52"
         transform="translate(-108,-252)" /><path
         d="M2575.5 1166.5 2605 1099.5 2634.5 1166.5Z"
         stroke="#2F528F"
         stroke-width="4.58333"
         stroke-miterlimit="8"
         fill="#4472C4"
         fill-rule="evenodd"
         id="path53"
         transform="translate(-108,-252)" /><path
         d="M2527.5 1065.5 2594.5 1095 2527.5 1124.5Z"
         stroke="#D9D9D9"
         stroke-width="9.16667"
         stroke-miterlimit="8"
         fill="#4472C4"
         fill-rule="evenodd"
         id="path54"
         transform="translate(-108,-252)" /></g><path
       d="M799 1391 850.836 1514.26"
       stroke="#595959"
       stroke-width="8.02083"
       stroke-miterlimit="8"
       fill="none"
       fill-rule="evenodd"
       id="path55"
       transform="translate(-108,-252)" /><path
       d="M0 0 59.3264 186.391"
       stroke="#595959"
       stroke-width="8.02083"
       stroke-miterlimit="8"
       fill="none"
       fill-rule="evenodd"
       transform="matrix(-1,0,0,1,1792.33,240)"
       id="path60" /><rect
       x="1997.5"
       y="1065.5"
       width="131"
       height="56"
       stroke="#2F528F"
       stroke-width="4.58333"
       stroke-miterlimit="8"
       fill="#4472C4"
       id="rect63"
       transform="translate(-108,-252)" /><text
       fill="#FFFFFF"
       font-family="Calibri,Calibri_MSFontService,sans-serif"
       font-weight="400"
       font-size="46"
       transform="translate(1929.85,856)"
       id="text63">DS</text><path
       d="M0 0 62.2796 84.3434"
       stroke="#595959"
       stroke-width="8.02083"
       stroke-miterlimit="8"
       fill="none"
       fill-rule="evenodd"
       id="path63"
       transform="matrix(-1,0,0,1,2016.28,729)" /><path
       d="M2395.39 1009.5 2412.04 1009.5 2412.04 1082.31 2414.11 1083.16C2416.82 1085.85 2418.5 1089.56 2418.5 1093.66 2418.5 1101.85 2411.78 1108.5 2403.5 1108.5 2395.22 1108.5 2388.5 1101.85 2388.5 1093.66 2388.5 1089.56 2390.18 1085.85 2392.89 1083.16L2395.39 1082.13Z"
       stroke="#172C51"
       stroke-width="4.58333"
       stroke-miterlimit="8"
       fill="#595959"
       fill-rule="evenodd"
       id="path64"
       transform="translate(-108,-252)" /><path
       d="M2193.39 623.5 2210.04 623.5 2210.04 697.049 2212.11 697.903C2214.82 700.617 2216.5 704.365 2216.5 708.506 2216.5 716.787 2209.78 723.5 2201.5 723.5 2193.22 723.5 2186.5 716.787 2186.5 708.506 2186.5 704.365 2188.18 700.617 2190.89 697.903L2193.39 696.868Z"
       stroke="#172C51"
       stroke-width="4.58333"
       stroke-miterlimit="8"
       fill="#595959"
       fill-rule="evenodd"
       id="path65"
       transform="translate(-108,-252)" /><path
       d="M2400.86 418 2400.86 487.924 2395.14 487.924 2395.14 418ZM2407.17 483.341 2398 501.674 2388.83 483.341Z"
       fill="#FFFFFF"
       id="path67"
       transform="translate(-108,-252)" /><path
       d="M2602.14 501.674 2602.14 431.75 2607.86 431.75 2607.86 501.674ZM2595.83 436.333 2605 418 2614.17 436.333Z"
       fill="#FFFFFF"
       id="path68"
       transform="translate(-108,-252)" /><path
       d="M363 1280 363.278 1514.11"
       stroke="#595959"
       stroke-width="8.02083"
       stroke-miterlimit="8"
       fill="none"
       fill-rule="evenodd"
       id="path69"
       transform="translate(-108,-252)" /><path
       d="M1476.16 1255.5 1492.26 1255.5 1492.26 1329.05 1494.25 1329.9C1496.88 1332.62 1498.5 1336.37 1498.5 1340.51 1498.5 1348.79 1492.01 1355.5 1484 1355.5 1475.99 1355.5 1469.5 1348.79 1469.5 1340.51 1469.5 1336.37 1471.12 1332.62 1473.75 1329.9L1476.16 1328.87Z"
       stroke="#172C51"
       stroke-width="4.58333"
       stroke-miterlimit="8"
       fill="#595959"
       fill-rule="evenodd"
       id="path70"
       transform="translate(-108,-252)" /><rect
       x="2787.5"
       y="699.5"
       width="20"
       height="571"
       stroke="#2F528F"
       stroke-width="4.58333"
       stroke-miterlimit="8"
       fill="#4472C4"
       id="rect70"
       transform="translate(-108,-252)" /><rect
       x="2602.5"
       y="1256.5"
       width="205"
       height="19.9999"
       stroke="#2F528F"
       stroke-width="4.58333"
       stroke-miterlimit="8"
       fill="#4472C4"
       id="rect71"
       transform="translate(-108,-252)" /><path
       d="M1680.5 1581.17C1680.5 1540.48 1713.48 1507.5 1754.17 1507.5L2159.83 1507.5C2200.52 1507.5 2233.5 1540.48 2233.5 1581.17L2233.5 1875.83C2233.5 1916.52 2200.52 1949.5 2159.83 1949.5L1754.17 1949.5C1713.48 1949.5 1680.5 1916.52 1680.5 1875.83Z"
       stroke="#2F528F"
       stroke-width="4.58333"
       stroke-miterlimit="8"
       fill="#4472C4"
       fill-rule="evenodd"
       id="path71"
       transform="translate(-108,-252)" /><path
       d="M1700.5 1596.33C1700.5 1559.42 1730.42 1529.5 1767.33 1529.5L2145.67 1529.5C2182.58 1529.5 2212.5 1559.42 2212.5 1596.33L2212.5 1863.67C2212.5 1900.58 2182.58 1930.5 2145.67 1930.5L1767.33 1930.5C1730.42 1930.5 1700.5 1900.58 1700.5 1863.67Z"
       stroke="#2F528F"
       stroke-width="4.58333"
       stroke-miterlimit="8"
       fill="#8FAADC"
       fill-rule="evenodd"
       id="path72"
       transform="translate(-108,-252)" /><path
       d="M1746.34 1554.13 2134.62 1588.1 2132.89 1607.8 1744.61 1573.83Z"
       stroke="#2F528F"
       stroke-width="4.58333"
       stroke-miterlimit="8"
       fill="#4472C4"
       fill-rule="evenodd"
       id="path73"
       transform="translate(-108,-252)" /><path
       d="M1747.51 1626.57 2135.79 1660.54 2134.06 1680.24 1745.78 1646.27Z"
       stroke="#2F528F"
       stroke-width="4.58333"
       stroke-miterlimit="8"
       fill="#4472C4"
       fill-rule="evenodd"
       id="path74"
       transform="translate(-108,-252)" /><path
       d="M1745.19 1694.29 2133.47 1660.32 2135.19 1680.02 1746.91 1713.99Z"
       stroke="#2F528F"
       stroke-width="4.58333"
       stroke-miterlimit="8"
       fill="#4472C4"
       fill-rule="evenodd"
       id="path75"
       transform="translate(-108,-252)" /><path
       d="M1743.8 1622.59 2132.08 1588.62 2133.8 1608.32 1745.52 1642.29Z"
       stroke="#2F528F"
       stroke-width="4.58333"
       stroke-miterlimit="8"
       fill="#4472C4"
       fill-rule="evenodd"
       id="path76"
       transform="translate(-108,-252)" /><path
       d="M1744.54 1763.04 2132.82 1729.07 2134.54 1748.77 1746.26 1782.74Z"
       stroke="#2F528F"
       stroke-width="4.58333"
       stroke-miterlimit="8"
       fill="#4472C4"
       fill-rule="evenodd"
       id="path77"
       transform="translate(-108,-252)" /><path
       d="M1747.77 1694.4 2136.05 1728.37 2134.32 1748.07 1746.04 1714.1Z"
       stroke="#2F528F"
       stroke-width="4.58333"
       stroke-miterlimit="8"
       fill="#4472C4"
       fill-rule="evenodd"
       id="path78"
       transform="translate(-108,-252)" /><path
       d="M1744.83 1830.71 2133.11 1796.74 2134.83 1816.44 1746.55 1850.41Z"
       stroke="#2F528F"
       stroke-width="4.58333"
       stroke-miterlimit="8"
       fill="#4472C4"
       fill-rule="evenodd"
       id="path79"
       transform="translate(-108,-252)" /><path
       d="M1748.13 1763.22 2136.41 1797.19 2134.68 1816.89 1746.4 1782.92Z"
       stroke="#2F528F"
       stroke-width="4.58333"
       stroke-miterlimit="8"
       fill="#4472C4"
       fill-rule="evenodd"
       id="path80"
       transform="translate(-108,-252)" /><path
       d="M1744.01 1829.91 2171.12 1867.28 2169.4 1886.98 1742.29 1849.61Z"
       stroke="#2F528F"
       stroke-width="4.58333"
       stroke-miterlimit="8"
       fill="#4472C4"
       fill-rule="evenodd"
       id="path81"
       transform="translate(-108,-252)" /><rect
       x="1743.5"
       y="1339.5"
       width="19.9999"
       height="234"
       stroke="#2F528F"
       stroke-width="4.58333"
       stroke-miterlimit="8"
       fill="#4472C4"
       id="rect81"
       transform="translate(-108,-252)" /><rect
       x="2158.5"
       y="1331.5"
       width="20"
       height="557"
       stroke="#2F528F"
       stroke-width="4.58333"
       stroke-miterlimit="8"
       fill="#4472C4"
       id="rect82"
       transform="translate(-108,-252)" /><path
       d="M1756.86 1355 1756.86 1424.92 1751.14 1424.92 1751.14 1355ZM1763.17 1420.34 1754 1438.67 1744.83 1420.34Z"
       fill="#FFFFFF"
       id="path82"
       transform="translate(-108,-252)" /><path
       d="M2165.14 1437.67 2165.14 1367.75 2170.86 1367.75 2170.86 1437.67ZM2158.83 1372.33 2168 1354 2177.17 1372.33Z"
       fill="#FFFFFF"
       id="path83"
       transform="translate(-108,-252)" /><path
       d="M1043.16 624.5 1059.26 624.5 1059.26 697.314 1061.25 698.159C1063.88 700.846 1065.5 704.557 1065.5 708.656 1065.5 716.854 1059.01 723.5 1051 723.5 1042.99 723.5 1036.5 716.854 1036.5 708.656 1036.5 704.557 1038.12 700.846 1040.75 698.159L1043.16 697.134Z"
       stroke="#172C51"
       stroke-width="4.58333"
       stroke-miterlimit="8"
       fill="#595959"
       fill-rule="evenodd"
       id="path84"
       transform="translate(-108,-252)" /><path
       d="M1604.5 1851.61 1604.5 1834.96 1677.31 1834.96 1678.16 1832.89C1680.85 1830.18 1684.56 1828.5 1688.66 1828.5 1696.85 1828.5 1703.5 1835.22 1703.5 1843.5 1703.5 1851.78 1696.85 1858.5 1688.66 1858.5 1684.56 1858.5 1680.85 1856.82 1678.16 1854.11L1677.13 1851.61Z"
       stroke="#172C51"
       stroke-width="4.58333"
       stroke-miterlimit="8"
       fill="#595959"
       fill-rule="evenodd"
       id="path87"
       transform="translate(-108,-252)" /><path
       d="M987 1338.14 1056.4 1338.14 1056.4 1343.86 987 1343.86ZM1051.82 1331.83 1070.15 1341 1051.82 1350.17Z"
       fill="#FFFFFF"
       id="path88"
       transform="translate(-108,-252)" /><g
       id="Speicher-Soll"><rect
         x="1439.5"
         y="1616.5"
         width="199"
         height="79.9998"
         stroke="#343434"
         stroke-width="4.58333"
         stroke-miterlimit="8"
         fill="#1C1C1C"
         id="rect86"
         transform="translate(-108,-252)" /><text
         fill="#BFBFBF"
         font-family="Calibri,Calibri_MSFontService,sans-serif"
         font-weight="400"
         font-size="46"
         transform="translate(1397.6,1419)"
         id="text86">Soll</text><rect
         x="1439.5"
         y="1696.5"
         width="199"
         height="80.0001"
         stroke="#343434"
         stroke-width="4.58333"
         stroke-miterlimit="8"
         fill="#1C1C1C"
         id="rect87"
         transform="translate(-108,-252)" /></g><g
       id="Speicher"><rect
         x="1186.5"
         y="1618.5"
         width="242"
         height="80.0001"
         stroke="#343434"
         stroke-width="4.58333"
         stroke-miterlimit="8"
         fill="#1C1C1C"
         id="rect84"
         transform="translate(-108,-252)" /><text
         fill="#BFBFBF"
         font-family="Calibri,Calibri_MSFontService,sans-serif"
         font-weight="400"
         font-size="46"
         transform="translate(1118.48,1421)"
         id="text84">Speicher</text><rect
         x="1186.5"
         y="1698.5"
         width="242"
         height="80.0001"
         stroke="#343434"
         stroke-width="4.58333"
         stroke-miterlimit="8"
         fill="#1C1C1C"
         id="rect85"
         transform="translate(-108,-252)" /></g><g
       id="Verdichter"><rect
         x="673.5"
         y="1514.5"
         width="355"
         height="80.0001"
         stroke="#343434"
         stroke-width="4.58333"
         stroke-miterlimit="8"
         fill="#1C1C1C"
         id="rect37"
         transform="translate(-108,-252)" /><text
         fill="#BFBFBF"
         font-family="Calibri,Calibri_MSFontService,sans-serif"
         font-weight="400"
         font-size="46"
         transform="translate(644.188,1318)"
         id="text37">Verdichter</text><rect
         x="673.5"
         y="1594.5"
         width="355"
         height="79.9998"
         stroke="#343434"
         stroke-width="4.58333"
         stroke-miterlimit="8"
         fill="#1C1C1C"
         id="rect38"
         transform="translate(-108,-252)" /></g><g
       id="Luefter"><rect
         x="214.5"
         y="1514.5"
         width="298"
         height="80.0001"
         stroke="#343434"
         stroke-width="4.58333"
         stroke-miterlimit="8"
         fill="#1C1C1C"
         id="rect35"
         transform="translate(-108,-252)" /><text
         fill="#BFBFBF"
         font-family="Calibri,Calibri_MSFontService,sans-serif"
         font-weight="400"
         font-size="46"
         transform="translate(198.98,1318)"
         id="text35">Lüfter</text><rect
         x="214.5"
         y="1594.5"
         width="298"
         height="79.9998"
         stroke="#343434"
         stroke-width="4.58333"
         stroke-miterlimit="8"
         fill="#1C1C1C"
         id="rect36"
         transform="translate(-108,-252)" /></g><g
       id="Vorlauf-BH"><rect
         x="2287.5"
         y="740.5"
         width="231"
         height="80.0001"
         stroke="#343434"
         stroke-width="4.58333"
         stroke-miterlimit="8"
         fill="#1C1C1C"
         id="rect64"
         transform="translate(-108,-252)" /><text
         fill="#BFBFBF"
         font-family="Calibri,Calibri_MSFontService,sans-serif"
         font-weight="400"
         font-size="46"
         transform="translate(2194.5,544)"
         id="text64">Vorlauf</text><text
         fill="#FFFFFF"
         font-family="Calibri,Calibri_MSFontService,sans-serif"
         font-weight="400"
         font-size="46"
         transform="translate(2340.59,544)"
         id="text65">BH</text><rect
         x="2287.5"
         y="820.5"
         width="231"
         height="161"
         stroke="#343434"
         stroke-width="4.58333"
         stroke-miterlimit="8"
         fill="#1C1C1C"
         id="rect65"
         transform="translate(-108,-252)" /></g><g
       id="Druck"><rect
         x="1975.5"
         y="821.5"
         width="300"
         height="80.0001"
         stroke="#343434"
         stroke-width="4.58333"
         stroke-miterlimit="8"
         fill="#1C1C1C"
         id="rect61"
         transform="translate(-108,-252)" /><text
         fill="#BFBFBF"
         font-family="Calibri,Calibri_MSFontService,sans-serif"
         font-weight="400"
         font-size="46"
         transform="translate(1962.62,624)"
         id="text61">Druck</text><rect
         x="1975.5"
         y="901.5"
         width="300"
         height="79.9998"
         stroke="#343434"
         stroke-width="4.58333"
         stroke-miterlimit="8"
         fill="#1C1C1C"
         id="rect62"
         transform="translate(-108,-252)" /></g><g
       id="Vorlauf-Soll"><rect
         x="1591.5"
         y="996.5"
         width="239"
         height="80.0001"
         stroke="#343434"
         stroke-width="4.58333"
         stroke-miterlimit="8"
         fill="#1C1C1C"
         id="rect57"
         transform="translate(-108,-252)" /><text
         fill="#BFBFBF"
         font-family="Calibri,Calibri_MSFontService,sans-serif"
         font-weight="400"
         font-size="46"
         transform="translate(1569.46,800)"
         id="text57">Soll</text><rect
         x="1591.5"
         y="1076.5"
         width="239"
         height="79.9998"
         stroke="#343434"
         stroke-width="4.58333"
         stroke-miterlimit="8"
         fill="#1C1C1C"
         id="rect58"
         transform="translate(-108,-252)" /></g><g
       id="Vorlauf"><rect
         x="1339.5"
         y="995.5"
         width="242"
         height="80.0001"
         stroke="#343434"
         stroke-width="4.58333"
         stroke-miterlimit="8"
         fill="#1C1C1C"
         id="rect55"
         transform="translate(-108,-252)" /><text
         fill="#BFBFBF"
         font-family="Calibri,Calibri_MSFontService,sans-serif"
         font-weight="400"
         font-size="46"
         transform="translate(1284.23,798)"
         id="text55">Vorlauf</text><rect
         x="1339.5"
         y="1075.5"
         width="242"
         height="161"
         stroke="#343434"
         stroke-width="4.58333"
         stroke-miterlimit="8"
         fill="#1C1C1C"
         id="rect56"
         transform="translate(-108,-252)" /></g><g
       id="Verdampfer"><rect
         x="701.5"
         y="998.5"
         width="327"
         height="79.9998"
         stroke="#343434"
         stroke-width="4.58333"
         stroke-miterlimit="8"
         fill="#1C1C1C"
         id="rect39"
         transform="translate(-108,-252)" /><text
         fill="#BFBFBF"
         font-family="Calibri,Calibri_MSFontService,sans-serif"
         font-weight="400"
         font-size="46"
         transform="translate(644.733,802)"
         id="text39">Verdampfer</text><rect
         x="701.5"
         y="1078.5"
         width="327"
         height="80.0001"
         stroke="#343434"
         stroke-width="4.58333"
         stroke-miterlimit="8"
         fill="#1C1C1C"
         id="rect40"
         transform="translate(-108,-252)" /></g><g
       id="Ruecklauf"><rect
         x="2073.5"
         y="332.5"
         width="256"
         height="80.0001"
         stroke="#343434"
         stroke-width="4.58333"
         stroke-miterlimit="8"
         fill="#1C1C1C"
         id="rect59"
         transform="translate(-108,-252)" /><text
         fill="#BFBFBF"
         font-family="Calibri,Calibri_MSFontService,sans-serif"
         font-weight="400"
         font-size="46"
         transform="translate(2013.47,135)"
         id="text59">Rücklauf</text><rect
         x="2073.5"
         y="412.5"
         width="256"
         height="161"
         stroke="#343434"
         stroke-width="4.58333"
         stroke-miterlimit="8"
         fill="#1C1C1C"
         id="rect60"
         transform="translate(-108,-252)" /></g><g
       id="Durchfluss"><rect
         x="1751.5"
         y="332.5"
         width="298"
         height="80.0001"
         stroke="#343434"
         stroke-width="4.58333"
         stroke-miterlimit="8"
         fill="#1C1C1C"
         id="rect48"
         transform="translate(-108,-252)" /><text
         fill="#BFBFBF"
         font-family="Calibri,Calibri_MSFontService,sans-serif"
         font-weight="400"
         font-size="46"
         transform="translate(1694.43,135)"
         id="text48">Durchfluss</text><rect
         x="1751.5"
         y="412.5"
         width="298"
         height="80.0001"
         stroke="#343434"
         stroke-width="4.58333"
         stroke-miterlimit="8"
         fill="#1C1C1C"
         id="rect49"
         transform="translate(-108,-252)" /></g><g
       id="Umwaelzpumpe"><rect
         x="1412.5"
         y="332.5"
         width="312"
         height="80.0001"
         stroke="#343434"
         stroke-width="4.58333"
         stroke-miterlimit="8"
         fill="#1C1C1C"
         id="rect66"
         transform="translate(-108,-252)" /><text
         fill="#BFBFBF"
         font-family="Calibri,Calibri_MSFontService,sans-serif"
         font-weight="400"
         font-size="46"
         transform="translate(1319.63,135)"
         id="text66">Umwälzpumpe</text><rect
         x="1412.5"
         y="412.5"
         width="312"
         height="80.0001"
         stroke="#343434"
         stroke-width="4.58333"
         stroke-miterlimit="8"
         fill="#1C1C1C"
         id="rect67"
         transform="translate(-108,-252)" /></g><g
       id="Kondensator"><rect
         x="995.5"
         y="332.5"
         width="296"
         height="80.0001"
         stroke="#343434"
         stroke-width="4.58333"
         stroke-miterlimit="8"
         fill="#1C1C1C"
         id="rect44"
         transform="translate(-108,-252)" /><text
         fill="#BFBFBF"
         font-family="Calibri,Calibri_MSFontService,sans-serif"
         font-weight="400"
         font-size="46"
         transform="translate(915.99,135)"
         id="text44">Kondensator</text><rect
         x="995.5"
         y="412.5"
         width="296"
         height="80.0001"
         stroke="#343434"
         stroke-width="4.58333"
         stroke-miterlimit="8"
         fill="#1C1C1C"
         id="rect45"
         transform="translate(-108,-252)" /></g><g
       id="EEV"><rect
         x="731.5"
         y="334.5"
         width="234"
         height="80.0001"
         stroke="#343434"
         stroke-width="4.58333"
         stroke-miterlimit="8"
         fill="#1C1C1C"
         id="rect42"
         transform="translate(-108,-252)" /><text
         fill="#BFBFBF"
         font-family="Calibri,Calibri_MSFontService,sans-serif"
         font-weight="400"
         font-size="46"
         transform="translate(704.811,137)"
         id="text42">EEV</text><rect
         x="731.5"
         y="414.5"
         width="234"
         height="80.0001"
         stroke="#343434"
         stroke-width="4.58333"
         stroke-miterlimit="8"
         fill="#1C1C1C"
         id="rect43"
         transform="translate(-108,-252)" /></g><g
       id="T-Aussen-2"><rect
         x="473.5"
         y="333.5"
         width="233"
         height="79.0001"
         stroke="#343434"
         stroke-width="4.58333"
         stroke-miterlimit="8"
         fill="#1C1C1C"
         id="rect31"
         transform="translate(-108,-252)" /><rect
         x="473.5"
         y="412.5"
         width="233"
         height="80.0001"
         stroke="#343434"
         stroke-width="4.58333"
         stroke-miterlimit="8"
         fill="#1C1C1C"
         id="rect34"
         transform="translate(-108,-252)" /><text
         fill="#bfbfbf"
         font-family="Calibri, Calibri_MSFontService, sans-serif"
         font-weight="400"
         font-size="46px"
         transform="translate(385.825,136)"
         id="text31">T-Außen 2</text></g><g
       id="T-Aussen-1"><rect
         x="214.5"
         y="412.5"
         width="234"
         height="80.0001"
         stroke="#343434"
         stroke-width="4.58333"
         stroke-miterlimit="8"
         fill="#1C1C1C"
         id="rect29"
         transform="translate(-108,-252)"
         inkscape:label="rect29" /><rect
         x="214.5"
         y="333.5"
         width="234"
         height="79.0001"
         stroke="#343434"
         stroke-width="4.58333"
         stroke-miterlimit="8"
         fill="#1C1C1C"
         id="rect26"
         transform="translate(-108,-252)" /><text
         fill="#bfbfbf"
         font-family="Calibri, Calibri_MSFontService, sans-serif"
         font-weight="400"
         font-size="46px"
         transform="translate(127.281,136)"
         id="text26">T-Außen 1</text></g></g></svg>
