M48
METRIC,LZ,000.000
;FILE_FORMAT=3:3
;TYPE=PLATED
;Layer: PTH_Through
;EasyEDA v6.5.40, 2024-08-12 13:02:19
;6ed52e104c50462789560134f86f8d0d,8913b61fcc3f40a88925c8db200aa785,10
;Gerber Generator version 0.2
;Holesize 1 = 0.306 mm
T01C0.306
;Holesize 2 = 1.050 mm
T02C1.050
;Holesize 3 = 1.501 mm
T03C1.501
;Holesize 4 = 1.524 mm
T04C1.524
%
G05
G90
T01
X069460Y024788
X055128Y024788
X059309Y059581
X070178Y044880
X056464Y028697
X062897Y027743
X082931Y034712
X068502Y059170
X060863Y054948
X063452Y020973
X059534Y053441
X064438Y053414
X063538Y042232
X067527Y033940
X080389Y030885
X064167Y026419
X057682Y055763
X053718Y046741
X070188Y040726
T02
X041021Y043561
X043561Y043561
X046101Y043561
X048641Y043561
X051181Y043561
X053721Y043561
X056261Y043561
X058801Y043561
X061341Y043561
X063881Y043561
X066421Y043561
X068961Y043561
X071501Y043561
X074041Y043561
X076581Y043561
X079121Y043561
X081661Y043561
X084201Y043561
X086741Y043561
X089281Y043561
X091821Y043561
X094361Y043561
X094361Y068961
X091821Y068961
X089281Y068961
X086741Y068961
X084201Y068961
X081661Y068961
X079121Y068961
X076581Y068961
X074041Y068961
X071501Y068961
X068961Y068961
X066421Y068961
X063881Y068961
X061341Y068961
X058801Y068961
X056261Y068961
X053721Y068961
X051181Y068961
X048641Y068961
X046101Y068961
X043561Y068961
X041021Y068961
T03
X091186Y012573
X091186Y017653
X091186Y022733
X091186Y027813
X091186Y032893
T04
X052800Y006213
X038600Y012212
X040600Y018212
X040600Y006212
X052800Y018212
X052800Y025517
X038600Y031516
X040600Y037516
X040600Y025516
X052800Y037516
M30
