G04 Layer: TopLayer*
G04 EasyEDA v6.5.40, 2024-08-12 13:02:19*
G04 6ed52e104c50462789560134f86f8d0d,8913b61fcc3f40a88925c8db200aa785,10*
G04 Gerber Generator version 0.2*
G04 Scale: 100 percent, Rotated: No, Reflected: No *
G04 Dimensions in millimeters *
G04 leading zeros omitted , absolute positions ,4 integer and 5 decimal *
%FSLAX45Y45*%
%MOMM*%

%AMMACRO1*21,1,$1,$2,0,0,$3*%
%ADD10C,0.2540*%
%ADD11R,0.5000X0.8000*%
%ADD12R,0.7000X1.2500*%
%ADD13MACRO1,0.54X0.5656X90.0000*%
%ADD14O,0.58801X2.0450048*%
%ADD15R,1.5000X0.8000*%
%ADD16R,1.2000X1.1500*%
%ADD17C,2.3000*%
%ADD18C,2.7940*%
%ADD19R,1.6000X1.6000*%
%ADD20C,1.6000*%
%ADD21C,0.6100*%
%ADD22C,0.0138*%

%LPD*%
D10*
X6842912Y1106906D02*
G01*
X6739991Y1106906D01*
X6739991Y1106906D02*
G01*
X6739991Y2104288D01*
X6474282Y2369997D01*
X6474282Y2586202D01*
X6505625Y2617546D01*
X6505625Y3330930D01*
X6761784Y3587089D01*
X6761784Y5229834D01*
X7931911Y5229834D02*
G01*
X7931911Y5174919D01*
X7931911Y5174919D02*
G01*
X7785100Y5028107D01*
X7785100Y3153943D01*
X7757540Y3126384D01*
X7757540Y3126384D02*
G01*
X7745856Y3114700D01*
X7145299Y3114700D01*
X6543725Y2513126D01*
X6543725Y2463647D01*
X7757540Y3126384D02*
G01*
X9118600Y1765300D01*
X5930900Y6151321D02*
G01*
X5816955Y6151321D01*
X4740173Y5074538D01*
X4740173Y2501392D01*
X4059986Y1821205D01*
X7496733Y6204000D02*
G01*
X7490333Y6210401D01*
X6858025Y6210401D01*
X6697548Y6049924D01*
X5941872Y6049924D01*
X5930900Y6060897D01*
X7496733Y6118580D02*
G01*
X7496733Y6204000D01*
X5930900Y6151321D02*
G01*
X5930900Y6060897D01*
X6491630Y5951321D02*
G01*
X6491630Y5860897D01*
X6491630Y5860897D02*
G01*
X6342862Y5712129D01*
X6342862Y5229834D01*
X5371795Y4674107D02*
G01*
X5371795Y5396788D01*
X5835904Y5860897D01*
X5835904Y5951321D02*
G01*
X5835904Y5860897D01*
X7018756Y4072636D02*
G01*
X7018756Y4406087D01*
X7180681Y4568012D01*
X7180681Y5229834D01*
X6855612Y3507206D02*
G01*
X6958533Y3507206D01*
X6958533Y3507206D02*
G01*
X7277100Y3825773D01*
X7277100Y4562881D01*
X7599578Y4885359D01*
X7599578Y5229834D01*
X6289725Y1909165D02*
G01*
X5768213Y2430678D01*
X5768213Y5576315D01*
X6586626Y6151321D02*
G01*
X6586626Y6241719D01*
X6586626Y6241719D02*
G01*
X6585635Y6242710D01*
X5850686Y6242710D01*
X4214723Y4606747D01*
X4214723Y3906342D01*
X4059986Y3751605D01*
X8314207Y6204000D02*
G01*
X8260537Y6257670D01*
X6602577Y6257670D01*
X6586626Y6241719D01*
X8314207Y6118580D02*
G01*
X8314207Y6204000D01*
X8018500Y5229834D02*
G01*
X8018500Y5174919D01*
X6416725Y2463647D02*
G01*
X6416725Y2641854D01*
X8018500Y5174919D02*
G01*
X8038922Y5154498D01*
X8038922Y3088462D01*
X8038922Y3088462D02*
G01*
X9272574Y1854809D01*
X9272574Y1411274D01*
X9118600Y1257300D01*
X6855612Y3253206D02*
G01*
X6752691Y3253206D01*
X6752691Y3253206D02*
G01*
X6752691Y3393998D01*
X6258534Y3507206D02*
G01*
X6258534Y5172684D01*
X6256299Y5174919D01*
X6155613Y3507206D02*
G01*
X6258534Y3507206D01*
X6256299Y5229834D02*
G01*
X6256299Y5174919D01*
X6670725Y1909165D02*
G01*
X6670725Y2007590D01*
X6353759Y2324557D01*
X6353759Y4223156D01*
X9436100Y4356100D02*
G01*
X9436100Y3606800D01*
X9118600Y3289300D01*
X9182100Y6896100D02*
G01*
X9182100Y5976416D01*
X8498941Y5293258D01*
X8344712Y5287619D02*
G01*
X8350351Y5293258D01*
X8498941Y5293258D01*
X8498941Y5293258D02*
G01*
X9436100Y4356100D01*
X8344712Y5219700D02*
G01*
X8344712Y5287619D01*
X7513015Y5229834D02*
G01*
X7513015Y5284749D01*
X6675221Y5229834D02*
G01*
X6675221Y5284749D01*
X7513015Y5287619D02*
G01*
X8344712Y5287619D01*
X7513015Y5284749D02*
G01*
X7513015Y5287619D01*
X5930112Y5253659D02*
G01*
X5930112Y5287619D01*
X5930112Y5253659D02*
G01*
X5930112Y5219700D01*
X6681622Y5941517D02*
G01*
X6681622Y5860897D01*
X6681622Y5941517D02*
G01*
X6681622Y5951321D01*
X5953379Y5344109D02*
G01*
X6025895Y5416626D01*
X6025895Y5951321D01*
X5953379Y5344109D02*
G01*
X5953379Y5310886D01*
X5930112Y5287619D01*
X6416725Y1909165D02*
G01*
X6416725Y1868703D01*
X6506590Y1778838D01*
X6580886Y1778838D01*
X6607225Y1805178D01*
X6607225Y2013407D01*
X6523304Y2097328D01*
X6345199Y2097328D01*
X6675221Y5291683D02*
G01*
X6675221Y5284749D01*
X6675221Y5291683D02*
G01*
X6493484Y5291683D01*
X6443776Y5341391D01*
X6685635Y5302097D02*
G01*
X6675221Y5291683D01*
X6681622Y5860897D02*
G01*
X6681622Y5306085D01*
X6685635Y5302097D01*
X6685635Y5302097D02*
G01*
X6689090Y5298617D01*
X7502016Y5298617D01*
X7513015Y5287619D01*
X4102100Y6896100D02*
G01*
X3859987Y6653987D01*
X3859987Y3151606D01*
X3859987Y3151606D02*
G01*
X3859987Y1221206D01*
X4356100Y4356100D02*
G01*
X4356100Y2847720D01*
X4059986Y2551607D01*
X6155613Y3253206D02*
G01*
X6258534Y3253206D01*
X5830112Y5219700D02*
G01*
X5830112Y5151780D01*
X6155613Y3253206D02*
G01*
X6052693Y3253206D01*
X7149718Y6118580D02*
G01*
X7149718Y6033160D01*
X6850176Y5917006D02*
G01*
X7033564Y5917006D01*
X7149718Y6033160D01*
X5901816Y5080076D02*
G01*
X6086347Y5264607D01*
X6086347Y5494781D01*
X5830112Y5151780D02*
G01*
X5901816Y5080076D01*
X5901816Y5080076D02*
G01*
X6021324Y4960569D01*
X6021324Y3284575D01*
X6052693Y3253206D01*
X7967192Y6033160D02*
G01*
X7967014Y6032982D01*
X7149896Y6032982D01*
X7149718Y6033160D01*
X7967192Y6118580D02*
G01*
X7967192Y6033160D01*
X4059986Y621207D02*
G01*
X4291685Y852906D01*
X6142913Y852906D01*
X6142913Y852906D02*
G01*
X6245834Y852906D01*
X6245834Y852906D02*
G01*
X6356756Y963828D01*
X6356756Y2038756D01*
X6258534Y3253206D02*
G01*
X6258534Y3152952D01*
X6219926Y3114344D01*
X6219926Y2139772D01*
X6320942Y2038756D01*
X6356756Y2038756D01*
X6356756Y2038756D02*
G01*
X6369481Y2038756D01*
X6381140Y2050414D01*
X6437807Y2050414D01*
X6543725Y1944496D01*
X6543725Y1909165D01*
X6289725Y2463647D02*
G01*
X6289725Y2774340D01*
X8444712Y5219700D02*
G01*
X8444712Y4730191D01*
X8293125Y4578604D01*
X8293125Y3471163D01*
X6039993Y1106906D02*
G01*
X5646369Y1500530D01*
X5646369Y2869692D01*
X7017765Y4487951D02*
G01*
X7094118Y4564303D01*
X7094118Y5229834D01*
X6142913Y1106906D02*
G01*
X6039993Y1106906D01*
X6842912Y852906D02*
G01*
X6945833Y852906D01*
X6945833Y852906D02*
G01*
X6945985Y853059D01*
X6945985Y2478786D01*
X5930900Y5958128D02*
G01*
X5930900Y5896482D01*
X5512790Y5478373D01*
X5512790Y2478786D01*
D11*
G01*
X5830112Y5219700D03*
G01*
X5930112Y5219700D03*
D12*
G01*
X5835904Y5951321D03*
G01*
X6025895Y5951321D03*
G01*
X5930900Y6151321D03*
G01*
X6491630Y5951321D03*
G01*
X6681622Y5951321D03*
G01*
X6586626Y6151321D03*
D13*
G01*
X6342863Y5229844D03*
G01*
X6256298Y5229844D03*
G01*
X6761775Y5229844D03*
G01*
X6675210Y5229844D03*
G01*
X7180677Y5229844D03*
G01*
X7094112Y5229844D03*
G01*
X7599572Y5229844D03*
G01*
X7513006Y5229844D03*
G01*
X8018489Y5229844D03*
G01*
X7931923Y5229844D03*
D11*
G01*
X8444712Y5219700D03*
G01*
X8344712Y5219700D03*
D14*
G01*
X6289725Y1909165D03*
G01*
X6416725Y1909165D03*
G01*
X6543725Y1909165D03*
G01*
X6670725Y1909165D03*
G01*
X6289725Y2463647D03*
G01*
X6416725Y2463647D03*
G01*
X6543725Y2463647D03*
G01*
X6670725Y2463647D03*
D15*
G01*
X6842912Y852906D03*
G01*
X6842912Y1106906D03*
G01*
X6142913Y1106906D03*
G01*
X6142913Y852906D03*
D16*
G01*
X7496733Y6118580D03*
G01*
X7149718Y6118580D03*
G01*
X8314207Y6118580D03*
G01*
X7967192Y6118580D03*
D15*
G01*
X6855612Y3253206D03*
G01*
X6855612Y3507206D03*
G01*
X6155613Y3507206D03*
G01*
X6155613Y3253206D03*
D17*
G01*
X9118600Y1257300D03*
G01*
X9118600Y1765300D03*
G01*
X9118600Y2273300D03*
G01*
X9118600Y2781300D03*
G01*
X9118600Y3289300D03*
D18*
G01*
X5279999Y621258D03*
G01*
X3859987Y1221206D03*
G01*
X4059986Y1821205D03*
G01*
X4059986Y621207D03*
G01*
X5279999Y1821154D03*
G01*
X5279999Y2551658D03*
G01*
X3859987Y3151606D03*
G01*
X4059986Y3751605D03*
G01*
X4059986Y2551607D03*
G01*
X5279999Y3751554D03*
D19*
G01*
X4102100Y4356100D03*
D20*
G01*
X4356100Y4356100D03*
G01*
X4610100Y4356100D03*
G01*
X4864100Y4356100D03*
G01*
X5118100Y4356100D03*
G01*
X5372100Y4356100D03*
G01*
X5626100Y4356100D03*
G01*
X5880100Y4356100D03*
G01*
X6134100Y4356100D03*
G01*
X6388100Y4356100D03*
G01*
X6642100Y4356100D03*
G01*
X6896100Y4356100D03*
G01*
X7150100Y4356100D03*
G01*
X7404100Y4356100D03*
G01*
X7658100Y4356100D03*
G01*
X7912100Y4356100D03*
G01*
X8166100Y4356100D03*
G01*
X8420100Y4356100D03*
G01*
X8674100Y4356100D03*
G01*
X8928100Y4356100D03*
G01*
X9182100Y4356100D03*
G01*
X9436100Y4356100D03*
D19*
G01*
X9436100Y6896074D03*
D20*
G01*
X9182100Y6896100D03*
G01*
X8928100Y6896100D03*
G01*
X8674100Y6896100D03*
G01*
X8420100Y6896100D03*
G01*
X8166100Y6896100D03*
G01*
X7912100Y6896100D03*
G01*
X7658100Y6896100D03*
G01*
X7404100Y6896100D03*
G01*
X7150100Y6896100D03*
G01*
X6896100Y6896100D03*
G01*
X6642100Y6896100D03*
G01*
X6388100Y6896100D03*
G01*
X6134100Y6896100D03*
G01*
X5880100Y6896100D03*
G01*
X5626100Y6896100D03*
G01*
X5372100Y6896100D03*
G01*
X5118100Y6896100D03*
G01*
X4864100Y6896100D03*
G01*
X4610100Y6896100D03*
G01*
X4356100Y6896100D03*
G01*
X4102100Y6896100D03*
D21*
G01*
X6945985Y2478786D03*
G01*
X5512790Y2478786D03*
G01*
X5930900Y5958128D03*
G01*
X7017765Y4487951D03*
G01*
X5646369Y2869692D03*
G01*
X6289725Y2774340D03*
G01*
X8293125Y3471163D03*
G01*
X6850176Y5917006D03*
G01*
X6086347Y5494781D03*
G01*
X6345199Y2097328D03*
G01*
X5953379Y5344109D03*
G01*
X6443776Y5341391D03*
G01*
X6353759Y4223156D03*
G01*
X6752691Y3393998D03*
G01*
X8038922Y3088462D03*
G01*
X6416725Y2641854D03*
G01*
X5768213Y5576315D03*
G01*
X5371795Y4674107D03*
G01*
X7018756Y4072636D03*
M02*
