G04 Layer: TopSolderMaskLayer*
G04 EasyEDA v6.5.40, 2024-08-12 13:02:19*
G04 6ed52e104c50462789560134f86f8d0d,8913b61fcc3f40a88925c8db200aa785,10*
G04 Gerber Generator version 0.2*
G04 Scale: 100 percent, Rotated: No, Reflected: No *
G04 Dimensions in millimeters *
G04 leading zeros omitted , absolute positions ,4 integer and 5 decimal *
%FSLAX45Y45*%
%MOMM*%

%AMMACRO1*1,1,$1,$2,$3*1,1,$1,$4,$5*1,1,$1,0-$2,0-$3*1,1,$1,0-$4,0-$5*20,1,$1,$2,$3,$4,$5,0*20,1,$1,$4,$5,0-$2,0-$3,0*20,1,$1,0-$2,0-$3,0-$4,0-$5,0*20,1,$1,0-$4,0-$5,$2,$3,0*4,1,4,$2,$3,$4,$5,0-$2,0-$3,0-$4,0-$5,$2,$3,0*%
%ADD10C,2.4000*%
%ADD11MACRO1,0.2032X-0.25X0.4X0.25X0.4*%
%ADD12C,2.8956*%
%ADD13MACRO1,0.1016X0.35X0.625X0.35X-0.625*%
%ADD14MACRO1,0.1016X-0.2828X-0.27X-0.2828X0.27*%
%ADD15MACRO1,0.1016X0.2828X-0.27X0.2828X0.27*%
%ADD16O,0.68961X2.1466048*%
%ADD17MACRO1,0.1016X0.7501X-0.4X-0.7501X-0.4*%
%ADD18MACRO1,0.1016X-0.6X0.575X0.6X0.575*%
%ADD19MACRO1,0.1016X-0.8X0.8X0.8X0.8*%
%ADD20C,1.7016*%
%ADD21MACRO1,0.1016X0.8X-0.8X-0.8X-0.8*%

%LPD*%
D10*
G01*
X9118600Y1257300D03*
G01*
X9118600Y1765300D03*
G01*
X9118600Y2273300D03*
G01*
X9118600Y2781300D03*
G01*
X9118600Y3289300D03*
D11*
G01*
X5830108Y5219697D03*
G01*
X5930108Y5219697D03*
D12*
G01*
X5279999Y621258D03*
G01*
X3859987Y1221206D03*
G01*
X4059986Y1821205D03*
G01*
X4059986Y621207D03*
G01*
X5279999Y1821154D03*
G01*
X5279999Y2551658D03*
G01*
X3859987Y3151606D03*
G01*
X4059986Y3751605D03*
G01*
X4059986Y2551607D03*
G01*
X5279999Y3751554D03*
D13*
G01*
X5835903Y5951313D03*
G01*
X6025894Y5951313D03*
G01*
X5930898Y6151313D03*
G01*
X6491625Y5951313D03*
G01*
X6681616Y5951313D03*
G01*
X6586620Y6151313D03*
D14*
G01*
X6342863Y5229844D03*
D15*
G01*
X6256298Y5229844D03*
D14*
G01*
X6761775Y5229844D03*
D15*
G01*
X6675210Y5229844D03*
D14*
G01*
X7180677Y5229844D03*
D15*
G01*
X7094112Y5229844D03*
D14*
G01*
X7599572Y5229844D03*
D15*
G01*
X7513006Y5229844D03*
D14*
G01*
X8018489Y5229844D03*
D15*
G01*
X7931923Y5229844D03*
D11*
G01*
X8444701Y5219700D03*
G01*
X8344701Y5219700D03*
D16*
G01*
X6289725Y1909165D03*
G01*
X6416725Y1909165D03*
G01*
X6543725Y1909165D03*
G01*
X6670725Y1909165D03*
G01*
X6289725Y2463647D03*
G01*
X6416725Y2463647D03*
G01*
X6543725Y2463647D03*
G01*
X6670725Y2463647D03*
D17*
G01*
X6842922Y852898D03*
G01*
X6842922Y1106898D03*
G01*
X6142923Y1106898D03*
G01*
X6142923Y852898D03*
D18*
G01*
X7496722Y6118572D03*
G01*
X7149730Y6118572D03*
G01*
X8314195Y6118572D03*
G01*
X7967204Y6118572D03*
D17*
G01*
X6855622Y3253198D03*
G01*
X6855622Y3507198D03*
G01*
X6155623Y3507198D03*
G01*
X6155623Y3253198D03*
D19*
G01*
X4102087Y4356092D03*
D20*
G01*
X4356100Y4356100D03*
G01*
X4610100Y4356100D03*
G01*
X4864100Y4356100D03*
G01*
X5118100Y4356100D03*
G01*
X5372100Y4356100D03*
G01*
X5626100Y4356100D03*
G01*
X5880100Y4356100D03*
G01*
X6134100Y4356100D03*
G01*
X6388100Y4356100D03*
G01*
X6642100Y4356100D03*
G01*
X6896100Y4356100D03*
G01*
X7150100Y4356100D03*
G01*
X7404100Y4356100D03*
G01*
X7658100Y4356100D03*
G01*
X7912100Y4356100D03*
G01*
X8166100Y4356100D03*
G01*
X8420100Y4356100D03*
G01*
X8674100Y4356100D03*
G01*
X8928100Y4356100D03*
G01*
X9182100Y4356100D03*
G01*
X9436100Y4356100D03*
D21*
G01*
X9436100Y6896087D03*
D20*
G01*
X9182100Y6896100D03*
G01*
X8928100Y6896100D03*
G01*
X8674100Y6896100D03*
G01*
X8420100Y6896100D03*
G01*
X8166100Y6896100D03*
G01*
X7912100Y6896100D03*
G01*
X7658100Y6896100D03*
G01*
X7404100Y6896100D03*
G01*
X7150100Y6896100D03*
G01*
X6896100Y6896100D03*
G01*
X6642100Y6896100D03*
G01*
X6388100Y6896100D03*
G01*
X6134100Y6896100D03*
G01*
X5880100Y6896100D03*
G01*
X5626100Y6896100D03*
G01*
X5372100Y6896100D03*
G01*
X5118100Y6896100D03*
G01*
X4864100Y6896100D03*
G01*
X4610100Y6896100D03*
G01*
X4356100Y6896100D03*
G01*
X4102100Y6896100D03*
M02*
